<svg xmlns="http://www.w3.org/2000/svg" width="768" height="36" viewBox="0 0 768 36">
    <g fill="none" fill-rule="evenodd">
        <g fill="#404040">
            <g>
                <path d="M0 18H360V22H0zM408 18H768V22H408z" transform="translate(-128 -530) translate(128 530)"/>
                <g fill-rule="nonzero">
                    <g>
                        <path d="M12.528 4.383c.118-.775.658-1.599 1.425-1.599.778 0 1.41.625 1.41 1.392h2.819C18.182 1.873 16.285 0 13.953 0c-2.37 0-3.913 1.997-4.213 3.972l-.906 6.05H4.51v2.785h3.907l-2.764 18.45-.008.065c-.075.739-.662 1.53-1.417 1.53-.777 0-1.41-.624-1.41-1.392H0c0 2.303 1.897 4.176 4.228 4.176 2.372 0 4.001-2.028 4.218-4.001l2.82-18.828h4.238v-2.784h-3.82l.844-5.64zM24 16.727L20.635 16.727 18.815 19.535 17.602 16.727 14.537 16.727 16.976 22.371 13.091 28.364 16.455 28.364 18.322 25.484 19.567 28.364 22.631 28.364 20.161 22.648z" transform="translate(-128 -530) translate(128 530) translate(372)"/>
                    </g>
                </g>
            </g>
        </g>
    </g>
</svg>
