<svg xmlns="http://www.w3.org/2000/svg" width="32" height="32" viewBox="0 0 32 32">
    <g fill="none" fill-rule="evenodd">
        <g fill="#0067B1" fill-rule="nonzero">
            <path d="M152.864 244.677c7.346 4.886 9.349 14.834 4.465 22.178-2.365 3.558-5.976 5.981-10.166 6.825-1.063.215-2.131.32-3.191.32-2.764 0-5.474-.719-7.903-2.112l-.402-.238-5.977 1.632c-.507.136-1.038-.03-1.372-.428-.335-.399-.408-.956-.186-1.425 1.222-2.595 1.472-5.52.715-8.278l-.104-.359c-.213-.68-.383-1.38-.504-2.074-.73-4.21.224-8.452 2.684-11.946 2.462-3.492 6.137-5.818 10.348-6.549.069-.012.138-.018.208-.02 3.982-.638 8.02.239 11.385 2.474zm-11.124.187c-.064.01-.127.017-.19.02-3.437.641-6.43 2.562-8.446 5.424-2.05 2.911-2.845 6.446-2.237 9.954.075.434.174.872.295 1.306l.128.433c.765 2.491.853 5.105.282 7.595l-.108.438 4.07-1.11c.115-.032.234-.048.351-.048.26 0 .518.076.74.223 2.967 1.972 6.524 2.671 10.012 1.968 3.49-.702 6.5-2.721 8.472-5.687 4.07-6.121 2.403-14.411-3.72-18.48-2.85-1.895-6.277-2.619-9.649-2.036zm2.536 18.499c.102.014.189.041.276.085.088.03.175.071.248.128l.083.05.15.12c.13.129.232.285.305.47.073.17.117.355.117.54 0 .185-.044.37-.117.54-.073.171-.174.327-.305.47-.147.127-.306.227-.48.298-.175.071-.363.114-.552.114-.19 0-.379-.043-.553-.114-.175-.071-.335-.17-.48-.298-.132-.143-.233-.299-.306-.47-.073-.17-.117-.355-.117-.54 0-.185.044-.37.117-.54.073-.185.174-.341.305-.47.334-.325.845-.483 1.309-.383zm-.276-13.54c.757 0 1.378.527 1.448 1.204l.007.129v8c0 .736-.65 1.333-1.455 1.333-.757 0-1.378-.528-1.448-1.205l-.007-.128v-8c0-.738.65-1.334 1.455-1.334z" transform="translate(-128 -242)"/>
        </g>
    </g>
</svg>
