<svg xmlns="http://www.w3.org/2000/svg" width="32" height="32" viewBox="0 0 32 32">
    <g fill="none" fill-rule="evenodd">
        <g fill="#FF5A5A" fill-rule="nonzero">
            <g>
                <path d="M27.32 4.68c6.24 6.243 6.24 16.398 0 22.64C24.2 30.44 20.103 32 16.005 32c-4.098 0-8.197-1.56-11.317-4.68C1.665 24.295 0 20.275 0 16c0-4.275 1.665-8.295 4.687-11.32 6.24-6.24 16.394-6.24 22.634 0zM6.44 6.435C3.886 8.99 2.48 12.387 2.48 16c0 3.614 1.406 7.011 3.96 9.566 5.273 5.275 13.854 5.275 19.128 0 5.272-5.274 5.272-13.857 0-19.132-5.274-5.274-13.855-5.275-19.128 0z" transform="translate(-128 -474) translate(128 474)"/>
                <path d="M21.466 19.192l-3.401-3.547 3.4-3.547c.47-.49.47-1.283.002-1.774-.47-.492-1.23-.49-1.7-.001l-3.403 3.55-3.404-3.55c-.47-.49-1.23-.49-1.7.001-.468.49-.468 1.285.002 1.774l3.4 3.547-3.4 3.547c-.47.489-.47 1.283-.002 1.774.235.246.543.367.85.367.308 0 .616-.123.85-.366l3.404-3.55 3.403 3.55c.234.245.542.366.85.366.307 0 .616-.123.85-.367.468-.49.468-1.285-.001-1.774z" transform="translate(-128 -474) translate(128 474)"/>
            </g>
        </g>
    </g>
</svg>
