<svg xmlns="http://www.w3.org/2000/svg" width="32" height="32" viewBox="0 0 32 32">
    <g fill="none" fill-rule="evenodd">
        <g fill="#028613" fill-rule="nonzero">
            <g>
                <path d="M16 0C7.177 0 0 7.177 0 16s7.177 16 16 16 16-7.178 16-16S24.823 0 16 0zm0 29.521C8.545 29.521 2.479 23.456 2.479 16S8.545 2.479 16 2.479c7.456 0 13.521 6.065 13.521 13.521S23.455 29.521 16 29.521z" transform="translate(-128 -358) translate(128 358)"/>
                <path d="M23.6 10.285c-.498-.47-1.271-.433-1.726.087l-7.453 8.547-3.6-3.812c-.476-.501-1.248-.51-1.728-.015-.481.492-.489 1.298-.015 1.799l4.508 4.772c.23.244.543.38.87.38l.024.001c.337-.007.655-.157.88-.417l8.323-9.543c.453-.522.416-1.326-.083-1.799z" transform="translate(-128 -358) translate(128 358)"/>
            </g>
        </g>
    </g>
</svg>
